<svg viewBox="0 0 500 500" xmlns="http://www.w3.org/2000/svg"><defs><clipPath id="a"><path d="M0 0h500v500H0Z"/></clipPath></defs><g clip-path="url(#a)"><path fill="#FF3838" d="M121.99 0h255.97c67.37 0 121.99 54.61 121.99 121.99v255.97c0 67.37-54.62 121.99-121.99 121.99H121.98C54.6 499.95-.01 445.33-.01 377.96V121.98C-.01 54.6 54.6-.01 121.98-.01Z"/><path fill="#FFF" d="M394.375 88.29h-209.99v-.02c-53.08-.27-96.09 42.89-96.09 95.83 -.14 52.93 42.9 95.83 95.83 95.83h31.76c1.78 0 3.43 1.51 3.43 3.43v110.66c0 9.48 7.56 17.18 17.18 17.18 9.48 0 17.18-7.7 17.18-17.19V125.78c0-1.93 1.51-3.44 3.43-3.44h50.6c1.78 0 3.43 1.51 3.43 3.43v268.125c0 9.488 7.56 17.18 17.18 17.18 9.48 0 17.18-7.7 17.18-17.19V125.76c-.14-1.93 1.51-3.44 3.3-3.44 0-.14 0-.14 0 0h44.96c9.48 0 17.18-7.7 17.18-17.19 0-9.63-7.7-17.19-17.19-17.19l.55.27Zm-174.625 154c0 1.78-1.65 3.43-3.44 3.43h-32.04c-34.1 0-61.6-27.637-61.6-61.6 -.14-34.1 27.5-61.6 61.46-61.6h31.76c1.78-.14 3.43 1.375 3.43 3.3l.41 116.46Z"/></g></svg>