<svg viewBox="0 0 500 500" xmlns="http://www.w3.org/2000/svg"><path fill="#FFF" d="M468.75 5H150.58v-.03C70.16 4.57 4.99 69.96 4.99 150.17c-.21 80.208 64.99 145.2 145.2 145.2h48.125c2.7 0 5.2 2.29 5.2 5.2v167.66c0 14.375 11.45 26.04 26.04 26.04 14.37 0 26.042-11.67 26.042-26.05V61.82c0-2.92 2.29-5.21 5.2-5.21h76.66c2.7 0 5.2 2.29 5.2 5.2v406.24c0 14.375 11.45 26.04 26.04 26.04 14.375 0 26.04-11.67 26.04-26.05V61.79c-.21-2.92 2.29-5.21 5-5.21 0-.21 0-.21 0 0h68.125c14.375 0 26.04-11.67 26.04-26.05 0-14.59-11.67-26.05-26.05-26.05l.83.41ZM204.16 238.33c-.001 2.7-2.5 5.2-5.21 5.2H150.4c-51.67 0-93.34-41.875-93.34-93.334 -.21-51.67 41.66-93.34 93.12-93.34H198.3c2.7-.21 5.2 2.08 5.2 5l.625 176.45Z"/></svg>